<svg width="30.678" height="30.689" xmlns="http://www.w3.org/2000/svg" data-name="Iconly/Broken/Star">

 <g>
  <title>Layer 1</title>
  <g id="Star">
   <path fill="#f6cf58" d="m23.778,30.562a1.028,1.028 0 0 1 -0.54,-0.138l-7.883,-4.152l-6.941,3.737a2.334,2.334 0 0 1 -3.164,-0.941c-0.008,-0.014 -0.015,-0.028 -0.023,-0.043a2.516,2.516 0 0 1 -0.242,-1.534l1.35,-7.969l-5.643,-5.713a2.456,2.456 0 0 1 0,-3.417a2.292,2.292 0 0 1 1.35,-0.692l7.737,-1.175l3.441,-7.17a2.325,2.325 0 0 1 4.225,0l3.455,7.195l7.763,1.189a2.34,2.34 0 0 1 1.559,0.957a2.53,2.53 0 0 1 -0.249,3.193l-5.617,5.646l0.782,4.294a1.2,1.2 0 0 1 -0.959,1.381a1.163,1.163 0 0 1 -1.35,-0.941l-0.8,-4.294a2.49,2.49 0 0 1 0.675,-2.16l5.631,-5.686l-7.763,-1.2a2.332,2.332 0 0 1 -1.762,-1.385l-3.455,-7.164l-3.5,7.277a2.328,2.328 0 0 1 -1.769,1.381l-7.736,1.175l5.589,5.677a2.441,2.441 0 0 1 0.675,2.131l-1.35,7.969l6.94,-3.722a2.258,2.258 0 0 1 2.214,0l7.872,4.152a1.209,1.209 0 0 1 0.594,1.349a1.181,1.181 0 0 1 -1.134,0.921l0.028,-0.128z" data-name="Star" id="Star-2"/>
  </g>
  <line stroke="#f6cf58" stroke-width="2" stroke-linecap="undefined" stroke-linejoin="undefined" id="svg_3" y2="29.61094" x2="25.20552" y1="21.3444" x1="23.60554" fill="none"/>
  <path d="m17.73897,16.27782c-0.53333,0.79999 -1.14475,2.2114 -1.33331,2.39996c-0.37712,0.37712 -2.52806,-1.76948 -2.93329,-4.2666c-0.38443,-2.36897 0.53333,-3.19995 1.86664,-3.19995c0.79999,0 1.58802,-0.12022 1.86664,0.79999c0.38637,1.2761 0.18856,1.94474 0,2.1333c-0.18856,0.18856 -0.53333,0 -1.06665,0c-0.79999,0 -1.74278,-1.99049 -0.79999,-2.93329c0.37712,-0.37712 1.59737,0.74406 1.86664,2.66663c0.18493,1.32043 -0.47186,1.76237 -1.06665,0.79999c-0.88666,-1.43464 -0.94151,-3.28114 -0.53333,-4.2666c0.14432,-0.34841 0.53333,-0.26666 0.53333,1.33331c0,2.39996 -0.0781,3.65517 -0.26666,3.46661c-0.18856,-0.18856 0,-2.66663 0,-5.06659c0,-1.33331 -0.10559,-1.92705 0.26666,-1.86664c0.58858,0.09551 0.00059,3.9734 -0.26666,7.99988c-0.07064,1.06431 -0.26666,-0.53333 -0.26666,-3.46661c0,-2.39996 0.41853,-4.0354 0.79999,-5.06659c0.20687,-0.55924 0.53333,-1.06665 0.53333,-1.33331c0,-0.53333 0,-0.79999 0,-1.06665c0,-0.26666 -0.38901,-0.18491 -0.53333,-0.53332c-0.10205,-0.24636 -0.12647,-0.30649 -0.26666,-0.53333c-0.31348,-0.50722 -0.28696,-0.69794 -0.53333,-0.79999c-0.34841,-0.14432 -0.2054,0.80712 -0.26666,1.06665c-0.137,0.58032 -0.39633,0.75299 -0.53333,1.33331c-0.06127,0.25953 -0.51135,0.63649 -0.79999,1.33331c-0.10205,0.24636 -0.47729,0.8209 -0.79999,1.59998c-0.22818,0.55089 -0.43128,1.08695 -0.53333,1.33331c-0.14432,0.34841 0,0 0.53333,0c0.79999,0 2.10091,0.13159 2.93329,0.26666c0.26322,0.04272 0.98732,0.41693 2.39996,1.06665c1.53223,0.70472 2.36014,0.94018 2.1333,0.79999c-0.50722,-0.31348 -1.16567,-1.26578 -1.86664,-2.39996c-0.31348,-0.50722 -1.06665,-1.06665 -1.33331,-1.33331c-0.26666,-0.26666 -0.26666,-0.53333 -0.53333,-0.53333c-0.26666,0 -1.29404,-0.31282 -1.59998,-0.53332c-0.48372,-0.34865 -0.87809,-0.34477 -1.06665,-0.53333c-0.18856,-0.18856 -0.34477,-0.45522 -0.53333,-0.26666c-0.75424,0.75424 0.00839,1.97652 -0.53333,2.93329c-0.18581,0.32817 -0.69794,0.55362 -0.79999,0.79999c-0.14432,0.34841 -0.59459,0.25953 -0.53333,0c0.137,-0.58033 0.55943,-2.08648 1.06665,-2.39996c0.22684,-0.14019 0.34477,-0.61143 0.53333,-0.79999c0.18856,-0.18856 0.62293,1.18897 -0.26666,3.19995c-0.38896,0.87927 -0.55943,1.28649 -1.06665,1.59997c-0.22684,0.14019 -0.53333,0.26666 -1.06665,0.53333c-0.53333,0.26666 -1.06665,0.26666 -1.33331,0.26666c-0.26666,0 -1.08757,0.05604 -1.86664,-0.26666c-0.55089,-0.22818 -0.79999,-0.26666 -1.06665,-0.26666c-0.26666,0 -0.53333,0 -0.79999,0c-0.26666,0 -0.79999,-0.26666 -0.79999,0c0,0.53333 1.87663,-0.24194 4.79993,0c1.61652,0.13379 2.65154,0.30606 3.99994,0.79999c1.58362,0.58009 2.81094,0.45158 2.66663,0.79999c-0.20409,0.49273 -3.93517,-0.7965 -5.59991,-1.06665c-1.3161,-0.21357 -1.59998,0 -2.1333,0c-1.06665,0 -1.86664,0 -2.1333,0c-0.79999,0 -1.59998,0 -1.86664,0c-0.26666,0 -0.43128,-0.0203 -0.53333,-0.26666c-0.14432,-0.34841 0.00228,-0.35201 1.59998,-0.26666c7.4986,0.40056 15.19977,2.93329 15.19977,1.33331c0,-0.53333 -3.46661,0 -7.73321,0c-2.66663,0 -2.93329,0 -3.19995,0c-1.06665,0 -3.46661,0 -3.99994,0c-0.26666,0 0.25835,-0.66654 3.46661,-0.79999c3.46362,-0.14407 5.86658,0 7.19989,0c0.53333,0 1.33331,0.26666 1.06665,0.26666c-0.26666,0 -2.87393,-0.93136 -6.93323,-1.33331c-1.32682,-0.13138 -1.06665,0 1.86664,0c3.99994,0 4.79993,0 4.2666,0c-1.33331,0 -5.82271,-0.26506 -8.26654,-0.53333c-0.53014,-0.0582 2.97158,0.102 5.59991,0.79999c0.81501,0.21644 1.06665,0.53333 1.06665,0.26666c0,-0.26666 0,-1.33331 0,-2.39996c0,-0.79999 0,-1.33331 0,-1.59998c0,-0.26666 0,-0.53333 0,-0.79999c0,-0.26666 0,-0.53333 0,-0.79999c0,-0.26666 0.26666,-0.79999 0,-0.79999c-0.26666,0 -0.17013,0.53936 0,2.93329c0.13367,1.88085 0.26666,2.1333 0.26666,2.39996c0,0.26666 0.24056,1.81982 -0.26666,2.1333c-1.36102,0.84116 -4.01196,-0.4929 -5.86658,-1.06665c-1.61118,-0.49844 -2.39996,-0.53332 -2.93329,-0.53332c-0.26666,0 -0.53333,0 -1.33331,0c-0.53332,0 -0.79999,0 -1.59998,0c-0.26666,0 -0.53333,0 -0.79999,0c-0.26666,0 -0.53333,0 -0.53333,0.26666c0,0.26666 0.0203,0.43128 0.26666,0.53333c0.34841,0.14432 0.61143,0.34477 0.79999,0.53333c0.18856,0.18856 0.28696,0.43128 0.53333,0.53333c0.34841,0.14432 0.55362,0.16462 0.79999,0.26666c0.69682,0.28863 0.81759,0.5007 1.33331,0.79999c0.83158,0.48258 1.02738,0.84615 1.33331,1.06665c0.48372,0.34865 0.58293,0.45134 1.06665,0.79999c0.30593,0.2205 0.55092,0.5007 1.06665,0.79999c0.83158,0.48259 1.2696,0.91089 2.1333,1.33331c1.51503,0.74098 2.40341,0.75727 2.66663,0.79999c0.83237,0.13507 1.86664,0.79999 2.39996,1.06665c0.53333,0.26666 1.02738,0.57948 1.33331,0.79999c0.48372,0.34865 1.01983,0.29276 1.33331,0.79999c0.14019,0.22684 0.0781,0.34477 0.26666,0.53333c0.18856,0.18856 0.18491,0.67764 0.53333,0.53333c0.24636,-0.10205 -0.837,-1.55905 -3.19995,-3.73327c-1.96232,-1.8056 -4.01935,-2.9018 -5.33325,-3.73328c-0.81245,-0.51414 -1.05339,-0.825 -0.53333,-0.53333c2.19417,1.23057 4.29494,3.62471 5.59991,5.33325c0.22891,0.2997 -0.0496,0.08199 -0.53333,-0.26666c-1.8356,-1.32303 -5.28554,-4.98694 -6.13324,-4.53326c-0.23511,0.12583 0.57162,1.72318 2.66663,5.33325c0.48259,0.83158 0.50445,1.1179 0,0.79999c-2.57222,-1.62107 -8.81452,-3.81194 -8.26654,-6.13324c0.06127,-0.25953 0.32284,0.47176 2.66663,2.66663c2.21925,2.07824 3.68294,2.82254 3.46661,2.66662c-0.68409,-0.49306 -0.92965,-2.35296 -1.06665,-2.93329c-0.06127,-0.25953 0.01144,-0.6106 0.26666,-0.53333c2.76063,0.83585 3.54472,2.85518 3.73328,2.66662c0.56568,-0.56568 -0.53333,-2.66662 -1.86664,-4.53326c-1.33331,-1.86664 -2.17602,-2.66318 -2.1333,-2.39996c0.13508,0.83237 1.84815,2.18872 2.39996,4.2666c0.06844,0.25773 -1.06665,-1.33331 -1.86664,-2.1333c-0.26666,-0.26666 0.92233,1.19231 1.33331,2.93329c0.06127,0.25953 -0.52152,-0.27902 -0.79999,-0.53333c-1.53791,-1.40445 -2.88386,-2.18054 -1.86664,-1.06665c1.40444,1.53791 1.51823,2.01096 1.86664,1.86664c0.98546,-0.40819 -0.47685,-1.96919 -0.26666,-2.1333c1.73323,-1.35326 5.93593,5.20572 7.19989,3.46661c2.33063,-3.20675 -4.21889,-5.14624 -5.06659,-5.59991c-0.23511,-0.12583 -0.26666,0.79999 -0.26666,1.59998c0,0.26666 -0.00955,0.70791 -1.59998,0.53333c-2.44383,-0.26826 -3.19514,-1.11708 -2.93329,-1.06665c2.82022,0.54313 3.38486,1.45566 3.73328,1.59998c0.24636,0.10205 0.73958,0.10559 0.79999,-0.26666c0.09551,-0.58858 -2.0516,-0.99475 -3.73328,-2.1333c-0.62456,-0.42285 -0.50517,-0.11926 -0.26666,0c1.19255,0.59628 1.33331,1.33331 2.66663,2.39996c1.33331,1.06665 1.78489,1.45566 2.1333,1.59998c0.49273,0.20409 1.41227,0.12179 0.79999,1.59997c-0.8659,2.09047 -2.39996,3.19995 -3.19995,3.99994c-0.26666,0.26666 -0.45158,0.65567 -0.79999,0.79999c-0.24636,0.10205 -0.48021,-0.56235 -0.26666,-1.33331c0.41505,-1.49848 0.79999,-2.1333 0.79999,-2.66663c0,-0.26666 0.05495,0.28998 -0.53333,1.59998c-0.7328,1.63184 -1.23127,2.1536 -1.33331,2.39996c-0.14432,0.34841 -0.53333,0.26666 -0.53333,0c0,-1.86664 0,-3.46661 0,-4.2666c0,-0.26666 0.34477,-0.72188 0.53333,-0.53333c0.37712,0.37712 0.26666,1.33331 0.26666,1.86664c0,0.79999 0,1.06665 0,1.86664c0,0.26666 0,0.53333 0,1.06665c0,0.53333 0,0.79999 0,1.06665c0,0.26666 -0.0261,0.75317 -0.53333,1.06665c-0.22684,0.14019 -0.49273,0.2041 0,0c0.34841,-0.14432 0.82029,-0.16462 1.06665,-0.26666c0.34841,-0.14432 1.10725,-0.32923 1.59998,-0.53333c0.34841,-0.14432 0.57392,-0.32923 1.06665,-0.53333c0.34841,-0.14432 0.65567,-0.71824 0.79999,-1.06665c0.10205,-0.24636 0,-0.53333 0,-0.79999c0,-0.26666 0.21966,-0.66299 0.79999,-0.79999c0.25953,-0.06127 0.03927,0.31282 -0.26666,0.53333c-0.96745,0.6973 -2.30685,1.24776 -3.73328,1.86664c-1.78093,0.77269 -2.1333,0.53333 -2.1333,0.79999c0,0.26666 0,0.53333 0,1.06665c0,0.26666 -0.0781,0.72188 -0.26666,0.53333c-0.18856,-0.18856 0,-0.53333 0,-0.79999c0,-0.26666 -0.03927,-0.57948 0.26666,-0.79999c0.48372,-0.34865 1.05701,-0.83088 1.86664,-1.06665c1.05563,-0.3074 1.86664,-0.53333 2.66663,-0.79999c0.79999,-0.26666 1.06665,-0.26666 1.59998,-0.79999c0.26666,-0.26666 0.29276,-0.75317 0.79999,-1.06665c0.22684,-0.14019 0.63759,0.2052 1.59998,0.79999c0.71732,0.44333 0.9849,0.92233 1.33331,1.06665c0.49273,0.20409 0.61143,0.0781 0.79999,0.26666c0.18856,0.18856 0.34477,0.34477 0.53333,0.53333c0.18856,0.18856 0.53333,0.26666 0.79999,0.53333c0.26666,0.26666 0.45158,0.38901 0.79999,0.53333c0.24636,0.10205 0.53333,0 0.53333,-0.26666c0,-0.26666 -0.41853,-2.96876 -0.79999,-3.99994c-0.41375,-1.11848 -1.15897,-1.52143 -1.59998,-2.1333c-0.6973,-0.96745 -0.79999,-1.33331 -0.79999,-1.06665c0,2.1333 0.53333,4.2666 0.53333,5.06659c0,0.26666 -0.5976,0.5823 -1.59998,-0.79999c-1.33752,-1.84445 -1.64679,-2.42607 -1.33331,-2.93329c0.14019,-0.22684 0.65447,0.38729 2.66663,2.66663c0.74873,0.84815 0.64893,0.45675 -0.26666,-0.79999c-1.66917,-2.29111 -1.7139,-1.79675 -0.53333,0c0.73216,1.1143 0.7933,1.33773 0.26666,0.53333c-2.43099,-3.71315 -3.18931,-4.81739 -1.86664,-3.99994c2.95759,1.82789 4.22414,3.05558 3.99994,3.19995c-2.70906,1.7444 -5.05515,-1.94391 -4.79993,-1.86664c1.84042,0.55723 3.38851,2.47807 3.19995,2.66662c-0.18856,0.18856 -1.02308,-0.85979 -3.19995,-2.39996c-0.78488,-0.55532 0.79999,0.53333 2.1333,1.86664c0.26666,0.26666 -0.50094,0.13507 -1.33331,0c-0.26322,-0.04272 0.31348,0.29276 0,0.79999c-0.14019,0.22684 -0.51364,-0.04545 -2.93329,-1.06665c-1.32302,-0.55837 -0.72959,-0.66382 1.33331,0.53333c2.49474,1.44776 3.84497,2.51166 4.2666,2.93329c0.42163,0.42163 1.06665,0.26666 1.33331,0.26666c0.53333,0 1.03427,0.39825 1.86664,0.53333c0.26322,0.04272 0.45158,0.12234 0.79999,0.26666c0.24636,0.10205 0.61143,0.07811 0.79999,0.26666c0.18856,0.18856 -0.03983,0.67352 -0.26666,0.53333c-0.50722,-0.31348 -1.1671,-2.10325 -1.59998,-3.73328c-0.349,-1.31417 -0.65567,-2.58488 -0.79999,-2.93329c-0.10205,-0.24636 0.16865,-0.82735 0,-1.33331c-0.42163,-1.26489 -1.06522,-1.57236 -0.79999,-1.59998c5.14981,-0.53621 1.85468,6.27968 2.1333,7.19989c0.07727,0.25522 0.18955,1.10999 -0.53333,-0.26666c-1.49796,-2.85272 -2.55023,-5.78724 -3.19995,-7.19989c-0.35236,-0.76611 0.01852,-0.54219 0.26666,0c1.44267,3.15216 1.56071,5.02043 1.86664,4.79992c0.96745,-0.6973 -2.39506,-4.45646 -2.66663,-5.86658c-0.05043,-0.26185 0.72626,0.20353 1.59998,3.19995c0.68821,2.36022 0.92233,2.58488 1.06665,2.93329c0.10205,0.24636 0.12234,0.45158 0.26666,0.79999c0.10205,0.24636 0.20171,-0.01925 0,-1.06665c-0.27156,-1.41011 -1.19933,-3.44683 -1.33331,-4.79992c-0.05255,-0.53073 0,-0.79999 0,-1.33331c0,-0.26666 -0.06127,-0.79285 0,-0.53333c0.137,0.58032 1.12844,2.914 1.59998,4.53326c0.3074,1.05563 0.4479,1.87352 0.53333,2.39996c0.13507,0.83237 0.67764,0.9849 0.53333,1.33331c-0.10205,0.24636 -1.51863,-0.30612 -3.19995,-1.86664c-1.52651,-1.41683 -1.59998,-1.86664 -1.59998,-2.39996c0,-0.26666 -0.11371,-0.87943 0.79999,1.06665c0.9683,2.06236 1.33331,3.19995 1.59998,3.73328c0.26666,0.53333 0.34477,0.87809 0.53333,1.06665c0.18856,0.18856 0.26666,0.26666 0.53333,0.26666c0.53333,0 0.79999,0.26666 1.33331,0.26666c0.26666,0 0.53333,0 0.79999,0c0.26666,0 0.26666,-0.26666 0.26666,-1.33331c0,-1.86664 -0.26666,-2.93329 -0.53333,-3.73328c-0.26666,-0.79999 -0.61143,-1.41142 -0.79999,-1.59997c-0.18856,-0.18856 -0.16462,-0.55362 -0.26666,-0.79999c-0.14432,-0.34841 -0.58366,-0.91073 -0.79999,-1.06665c-0.68409,-0.49306 -0.2054,-1.34045 -0.26666,-1.59998c-0.137,-0.58033 -0.39825,-0.7676 -0.53333,-1.59998c-0.04272,-0.26322 -0.26666,-0.26666 -0.26666,-0.53333c0,-0.26666 -0.18856,-0.61143 0,-0.79999c0.37712,-0.37712 0.79999,0 1.33331,0c0.53333,0 0.79999,0 1.06665,0c0.79999,0 1.33331,0 1.59997,0c0.53333,0 0.74586,0.0684 1.06665,0.26666c0.71732,0.44333 0.85835,0.60874 0.53333,0.79999c-1.67318,0.9845 -2.93329,1.06665 -3.73327,1.33331c-0.79999,0.26666 -1.06665,0.26666 -1.33331,0.26666c-0.26666,0 -0.54759,0.12253 -1.06665,0c-0.58032,-0.137 -1.099,-0.76764 -0.53333,-1.33331c0.18856,-0.18856 1.86664,0 3.73328,0c1.06665,0 1.59997,0 1.86664,0l0.26666,0l-0.26666,0l-0.26666,0" id="svg_5" stroke-width="2" stroke="#f6cf58" fill="none"/>
  <path d="m23.07222,13.34453c0.26666,0 0.45158,-0.12235 0.79999,-0.26666c0.24636,-0.10205 0.61143,-0.45522 0.79999,-0.26666c0.75424,0.75424 -0.53333,2.93329 -0.79999,3.19995c-0.26666,0.26666 -0.53333,0.26666 -0.79999,0.26666c-0.53332,0 -1.98491,-0.36816 -2.39996,-1.86664c-0.28473,-1.02795 -0.18856,-1.67808 0,-1.86664c0.18856,-0.18856 0.53333,-0.26666 0.79999,-0.26666c0.26666,0 1.06665,0 1.33331,0c0.26666,0 0.53332,0 0.79999,0c0.26666,0 0.53333,0 0.26666,0c-0.26666,0 -1.27918,-0.0684 -1.59997,-0.26666c-0.71732,-0.44333 -1.59998,-1.06665 -1.59998,-0.53332c0,0.26666 0.53333,0 0.79999,0c0.26666,0 0.79999,0 1.06665,0c0.53332,0 0.81032,-0.12814 1.59997,0c0.83237,0.13508 1.65642,0.19043 2.39996,0.79999c0.29164,0.23909 0.21706,0.45134 -0.26666,0.79999c-0.30593,0.2205 -0.63649,0.51135 -1.33331,0.79999c-0.24636,0.10205 -0.16462,0.28696 -0.26666,0.53333c-0.14432,0.34841 -0.47729,0.28758 -0.79999,1.06665c-0.22819,0.55089 -0.34477,0.61143 -0.53333,0.79999c-0.18856,0.18856 -0.26666,0.26666 -0.53332,0.53333c-0.53332,0.53333 -0.79999,0.53333 -1.33331,0.79999c-0.53333,0.26666 -1.8966,0.41254 -3.19995,0.79999c-1.37649,0.40919 -1.86664,0.53333 -2.93329,0.53333c-0.53333,0 -0.79999,0 -1.06665,0c-1.33331,0 -2.66663,0 -3.99994,0c-0.26666,0 -0.53333,0 -0.79999,0c-0.26666,0 -0.43128,-0.0203 -0.53332,-0.26666c-0.14432,-0.34841 -0.38901,-0.45158 -0.53333,-0.79999c-0.10205,-0.24636 -0.26666,-0.53333 -0.53333,-0.79999c-0.26666,-0.26666 -0.71824,-0.65567 -1.06665,-0.79999c-0.24636,-0.10205 -0.79999,-0.53333 -0.79999,-0.26666c0,0.26666 0.55473,-0.1838 1.33331,0c0.58032,0.137 0.78081,0.96293 1.33331,1.59998c0.39068,0.45046 0.718,0.84959 1.06665,1.33331c0.44101,0.61187 1.29404,1.11281 1.59998,1.33331c0.48372,0.34865 1.03427,0.66491 1.86664,0.79999c0.26322,0.04272 0.41031,0.16171 1.06665,0.53333c0.95677,0.54171 1.64245,0.69616 2.39996,1.06665c0.8637,0.42242 1.33331,1.06665 1.86664,1.33331c0.53333,0.26666 0.80712,0.47206 1.06665,0.53333c0.58032,0.137 0.71824,0.65567 1.06665,0.79999c0.24636,0.10205 0.53333,0.26666 0.79999,0.53333c0.26666,0.26666 0.28696,0.43128 0.53333,0.53333c0.34841,0.14432 0.45158,0.92233 0.79999,1.06665c0.24636,0.10205 0.65567,0.18491 0.79999,0.53333c0.10205,0.24636 -0.26666,0.26666 -0.79999,-0.53333c-0.53333,-0.79999 -0.99042,-1.92308 -1.59998,-2.66663c-0.23909,-0.29164 -0.45134,-0.58293 -0.79999,-1.06665c-0.44101,-0.61187 -0.69616,-1.37579 -1.06665,-2.1333c-0.42242,-0.8637 -0.92966,-1.81964 -1.06665,-2.39996c-0.12253,-0.51906 -0.04074,-1.34433 0.26666,-2.39996c0.23577,-0.80963 0.95838,-1.47011 1.59998,-1.86664c0.71732,-0.44333 1.91383,-0.35871 3.19995,-0.79999c0.564,-0.19351 0.71824,-0.38901 1.06665,-0.53333c0.24636,-0.10205 0.54046,0.06127 0.79999,0c0.58032,-0.137 0.79999,-0.26666 1.06665,-0.26666l0.26666,-0.26666l0.26666,0l0.53333,-0.26666" id="svg_6" stroke-width="2" stroke="#f6cf58" fill="none"/>
  <path d="m27.60548,12.01122c-0.26666,0 -0.53333,0 -1.06665,0c-0.53333,0 -0.26666,0 0,0c0.53333,0 0.79999,0 1.06665,0c0.26666,0 0,0 -0.26666,0l-0.26666,0l-0.26666,0" id="svg_7" stroke-width="2" stroke="#f6cf58" fill="none"/>
 </g>
</svg>