<svg xmlns="http://www.w3.org/2000/svg" width="27.593" height="24.833" viewBox="0 0 27.593 24.833">
  <g id="Iconly_Bulk_Camera" data-name="Iconly/Bulk/Camera" transform="translate(-2.759 -4.139)">
    <g id="Camera" transform="translate(2.759 4.139)">
      <path id="Combined_Shape" data-name="Combined Shape" d="M1.587,9.577A5.424,5.424,0,0,1,0,5.746,5.34,5.34,0,0,1,1.573,1.928a5.417,5.417,0,1,1,.014,7.649ZM3.036,3.39A3.22,3.22,0,0,0,2.07,5.733v.014A3.343,3.343,0,0,0,5.423,9.1,3.371,3.371,0,0,0,8.775,5.746,3.357,3.357,0,0,0,3.036,3.39ZM11.92,1.254a1.249,1.249,0,1,1,1.242,1.24A1.248,1.248,0,0,1,11.92,1.254Z" transform="translate(8.374 8.503)" fill="#1877f2"/>
      <path id="Path" d="M21.3,4.465l-.138-.3c-.372-.786-.8-1.7-1.062-2.219A3.369,3.369,0,0,0,17.038,0h-6.5A3.349,3.349,0,0,0,7.491,1.943C7.215,2.494,6.746,3.487,6.36,4.3l-.083.165a.271.271,0,0,1-.262.165A6.017,6.017,0,0,0,0,10.639v8.186a6.017,6.017,0,0,0,6.015,6.008H21.577a6.026,6.026,0,0,0,6.015-6.008V10.639A6.026,6.026,0,0,0,21.577,4.63.314.314,0,0,1,21.3,4.465Z" fill="#1877f2" opacity="0.4"/>
    </g>
  </g>
</svg>
