<svg xmlns="http://www.w3.org/2000/svg" width="23.414" height="22.243" viewBox="0 0 23.414 22.243">
  <defs>
    <style>
      .cls-1, .cls-2 {
        fill: #ff4557;
      }

      .cls-1 {
        opacity: 0.4;
      }
    </style>
  </defs>
  <g id="Iconly_Bulk_Heart" data-name="Iconly/Bulk/Heart" transform="translate(-2.759 -4.139)">
    <g id="Heart" transform="translate(2.759 4.139)">
      <path id="Path_34179" class="cls-1" d="M11.419,22.053a42.447,42.447,0,0,1-7.408-5.8A14.831,14.831,0,0,1,.463,10.624C-.869,6.48.681,1.744,5.01.338a7.355,7.355,0,0,1,6.68,1.184h0A7.365,7.365,0,0,1,18.37.338C22.7,1.744,24.259,6.48,22.927,10.624A14.832,14.832,0,0,1,19.4,16.249a42.833,42.833,0,0,1-7.408,5.8l-.291.19Z" transform="translate(0.026 0)"/>
      <path id="Path_34178" class="cls-2" d="M11.72,22.243l-.275-.19a42.519,42.519,0,0,1-7.419-5.8A14.829,14.829,0,0,1,.457,10.624C-.864,6.48.686,1.743,5.015.337a7.371,7.371,0,0,1,6.705,1.2Z" transform="translate(0 0)"/>
      <path id="Path_34180" class="cls-2" d="M2.611,4.682h0a.841.841,0,0,1-.606-.325.958.958,0,0,1-.2-.692h0A1.928,1.928,0,0,0,.646,1.8.922.922,0,0,1,.026.694.849.849,0,0,1,1.037.022.449.449,0,0,1,1.2.083,3.742,3.742,0,0,1,3.508,3.776a.945.945,0,0,1-.268.656A.829.829,0,0,1,2.611,4.682Z" transform="translate(16.39 3.512)"/>
    </g>
  </g>
</svg>
