<svg id="Scan" xmlns="http://www.w3.org/2000/svg" width="26.125" height="21.375" viewBox="0 0 26.125 21.375">
  <path id="Combined_Shape" data-name="Combined Shape" d="M5.243,8.934a.332.332,0,0,1-.321-.32V7.135a2.694,2.694,0,0,1,2.7-2.69h6.559a2.684,2.684,0,0,1,2.7,2.69V8.614a.333.333,0,0,1-.325.32Zm14.743-2.09v-2.2a2.9,2.9,0,0,0-2.922-2.865H15.173a.9.9,0,0,1-.9-.885.9.9,0,0,1,.9-.888h1.892a4.688,4.688,0,0,1,4.729,4.638v2.2a.9.9,0,0,1-1.807,0ZM0,6.842V4.634A4.685,4.685,0,0,1,4.72,0H6.655a.9.9,0,0,1,.9.887.894.894,0,0,1-.9.886H4.721a2.893,2.893,0,0,0-2.912,2.86V6.842a.9.9,0,0,1-.9.887A.9.9,0,0,1,0,6.842Z" transform="translate(2.166)"/>
  <path id="Fill_7" data-name="Fill 7" d="M25.221,0H.9A.9.9,0,0,0,0,.887a.9.9,0,0,0,.9.885h1.26V6a4.686,4.686,0,0,0,4.72,4.633H8.82a.887.887,0,1,0,0-1.773H6.888A2.893,2.893,0,0,1,3.973,6V1.772H7.088V2.95A2.694,2.694,0,0,0,9.783,5.641h6.56a2.694,2.694,0,0,0,2.7-2.691V1.772h3.115V6A2.9,2.9,0,0,1,19.23,8.865H17.339a.887.887,0,1,0,0,1.773H19.23A4.69,4.69,0,0,0,23.96,6V1.772h1.261a.9.9,0,0,0,.9-.885.9.9,0,0,0-.9-.887" transform="translate(0 10.736)"/>
</svg>
